HIERARCHY
ROOT RootJoint
{
    OFFSET   0.000000   0.000000   0.000000
    CHANNELS 6 Xposition Yposition Zposition Xrotation Yrotation Zrotation
    JOINT pelvis_lowerback
    {
        OFFSET   0.000000   0.093605   0.000000
        CHANNELS 3 Xrotation Yrotation Zrotation
        JOINT lowerback_torso
        {
            OFFSET   0.000000   0.100000   0.000000
            CHANNELS 3 Xrotation Yrotation Zrotation
            JOINT torso_head
            {
                OFFSET   0.000000   0.282350   0.000000
                CHANNELS 3 Xrotation Yrotation Zrotation
                End Site
                {
                    OFFSET   0.000000   0.192650   0.000000
                }
            }
            JOINT rTorso_Clavicle
            {
                OFFSET  -0.001000   0.157500   0.000000
                CHANNELS 3 Xrotation Yrotation Zrotation
                JOINT rShoulder
                {
                    OFFSET  -0.117647   0.000000   0.000000
                    CHANNELS 3 Xrotation Yrotation Zrotation
                    JOINT rElbow
                    {
                        OFFSET  -0.245000   0.000000   0.000000
                        CHANNELS 3 Xrotation Yrotation Zrotation
                        JOINT rWrist
                        {
                            OFFSET  -0.240000   0.000000   0.000000
                            CHANNELS 3 Xrotation Yrotation Zrotation
                            End Site
                            {
                                OFFSET  -0.116353  -0.002500   0.000000
                            }
                        }
                    }
                }
            }
            JOINT lTorso_Clavicle
            {
                OFFSET   0.001000   0.157500   0.000000
                CHANNELS 3 Xrotation Yrotation Zrotation
                JOINT lShoulder
                {
                    OFFSET   0.117647   0.000000   0.000000
                    CHANNELS 3 Xrotation Yrotation Zrotation
                    JOINT lElbow
                    {
                        OFFSET   0.245000   0.000000   0.000000
                        CHANNELS 3 Xrotation Yrotation Zrotation
                        JOINT lWrist
                        {
                            OFFSET   0.240000   0.000000   0.000000
                            CHANNELS 3 Xrotation Yrotation Zrotation
                            End Site
                            {
                                OFFSET   0.116353  -0.002500   0.000000
                            }
                        }
                    }
                }
            }
        }
    }
    JOINT rHip
    {
        OFFSET  -0.100000  -0.051395   0.000000
        CHANNELS 3 Xrotation Yrotation Zrotation
        JOINT rKnee
        {
            OFFSET   0.000000  -0.410000   0.000000
            CHANNELS 3 Xrotation Yrotation Zrotation
            JOINT rAnkle
            {
                OFFSET   0.000000  -0.390000   0.000000
                CHANNELS 3 Xrotation Yrotation Zrotation
                JOINT rToeJoint
                {
                    OFFSET   0.000000  -0.050000   0.130000
                    CHANNELS 3 Xrotation Yrotation Zrotation
                    End Site
                    {
                        OFFSET  -0.010000   0.002000   0.060000
                    }
                }
            }
        }
    }
    JOINT lHip
    {
        OFFSET   0.100000  -0.051395   0.000000
        CHANNELS 3 Xrotation Yrotation Zrotation
        JOINT lKnee
        {
            OFFSET   0.000000  -0.410000   0.000000
            CHANNELS 3 Xrotation Yrotation Zrotation
            JOINT lAnkle
            {
                OFFSET   0.000000  -0.390000   0.000000
                CHANNELS 3 Xrotation Yrotation Zrotation
                JOINT lToeJoint
                {
                    OFFSET   0.000000  -0.050000   0.130000
                    CHANNELS 3 Xrotation Yrotation Zrotation
                    End Site
                    {
                        OFFSET   0.010000   0.002000   0.060000
                    }
                }
            }
        }
    }
}
MOTION
Frames: 11
Frame Time:   0.008333
 -2.364508   0.632661   3.918253  15.424368  -0.128722   4.689539  42.988663  -0.219802  -0.137484 -11.416191  -2.086775  -0.527125 -14.491119  -1.372282  -3.478547 -13.195863  25.592317   2.185354 -29.646486  14.381049  17.453514  -0.269443  51.162103   0.202049  -1.592767   3.653663 -14.846050 -12.454401 -22.664680   0.651737 -19.038336 -18.520753 -14.922766  -0.240195 -55.559000  -0.140031  -2.253943  -7.150580  12.844018 -72.676607   4.929432  -9.999742 100.389114  -0.000576  -0.000145 -43.220459  -9.059097  -5.025706   1.383301   0.000178  -0.000063 -71.220783   4.273511   4.773047 103.611510  -0.000041  -0.000113 -32.457484   3.806713   3.484108 -23.934977  -0.008683   0.000118
 -2.364311   0.635922   3.922070  14.865064   0.025127   4.910250  42.359827  -0.216443  -0.229333 -11.289030  -2.140169  -0.632777 -14.213137  -1.499418  -3.359583 -14.121603  26.629845   1.182609 -32.042810  15.252198  16.661965  -0.286017  52.349753   0.213271  -1.673171   3.389556 -14.900091 -13.094118 -23.814869   2.041097 -21.020657 -19.837271 -13.669249  -0.232427 -56.172149  -0.134757  -2.455945  -7.042496  12.671360 -71.417279   5.091816 -10.334350 100.049905  -0.000846  -0.000006 -43.367801  -9.147543  -4.659645   1.149818   0.000584  -0.000033 -70.304564   4.379010   4.476895 103.385982   0.000096  -0.000107 -31.201467   3.771510   3.021687 -25.903208  -0.012812  -0.000266
 -2.364058   0.640039   3.926286  14.408840   0.173712   5.122290  41.690896  -0.203473  -0.333987 -11.199015  -2.193030  -0.733596 -13.876164  -1.620595  -3.252729 -15.049073  27.632453   0.129902 -34.333369  16.159216  15.874464  -0.297142  53.485711   0.219955  -1.725567   3.231314 -15.124722 -13.775762 -24.946085   3.517787 -22.926989 -21.165198 -12.399351  -0.224324 -56.749309  -0.128834  -2.642333  -6.917937  12.698402 -70.158436   5.221287 -10.666429  99.560444  -0.001241   0.000140 -43.412755  -9.220486  -4.319511   0.823650   0.000984  -0.000058 -69.376972   4.487464   4.172981 103.032664   0.000271  -0.000074 -29.830913   3.733740   2.605261 -28.046716  -0.015925  -0.000533
 -2.363795   0.644747   3.931116  14.064774   0.334281   5.300162  40.936766  -0.187127  -0.428775 -11.207113  -2.241670  -0.818721 -13.536279  -1.733916  -3.154655 -15.930449  28.590277  -0.917145 -36.491618  17.066806  15.135563  -0.303031  54.561882   0.223062  -1.751504   3.170132 -15.432278 -14.438688 -26.030193   4.994625 -24.726222 -22.472747 -11.181415  -0.216020 -57.299227  -0.122907  -2.802874  -6.850063  12.876237 -68.911675   5.305464 -10.982646  98.970103  -0.001782   0.000186 -43.392617  -9.288676  -4.002909   0.392085   0.001333  -0.000213 -68.456824   4.608602   3.891055 102.566857   0.000271  -0.000094 -28.472237   3.718914   2.216735 -30.171365  -0.017885  -0.002292
 -2.363526   0.649856   3.936663  13.810362   0.507666   5.446945  40.088318  -0.169878  -0.514641 -11.314607  -2.287348  -0.890956 -13.211054  -1.839489  -3.063210 -16.752246  29.495853  -1.934362 -38.515422  17.955482  14.457507  -0.304505  55.577237   0.223305  -1.760864   3.172626 -15.776516 -15.059868 -27.059006   6.435432 -26.411620 -23.744883 -10.039183  -0.207405 -57.822808  -0.117044  -2.942588  -6.841093  13.137724 -67.669402   5.342831 -11.288002  98.320007  -0.002373   0.000139 -43.321006  -9.367419  -3.708291  -0.162896   0.001604  -0.000440 -67.529533   4.741902   3.633866 102.025531   0.000051  -0.000204 -27.144982   3.719845   1.853930 -32.287724  -0.018842  -0.005062
 -2.363214   0.655195   3.943006  13.609424   0.673758   5.574443  39.156516  -0.149430  -0.601366 -11.508264  -2.327676  -0.959235 -12.905309  -1.937520  -2.978145 -17.512347  30.347069  -2.912527 -40.409431  18.815390  13.840989  -0.302445  56.532783   0.221233  -1.759838   3.215014 -16.135925 -15.631417 -28.027375   7.823988 -27.984387 -24.971489  -8.978561  -0.198461 -58.320004  -0.111217  -3.066072  -6.879950  13.441873 -66.410888   5.350875 -11.581480  97.645587  -0.002930   0.000080 -43.207944  -9.442995  -3.436312  -0.855354   0.001706  -0.000765 -66.614264   4.866662   3.407270 101.437805  -0.000200  -0.000389 -25.794223   3.727683   1.519981 -29.920917  -0.010876  -0.000169
 -2.362870   0.660743   3.950083  13.477736   0.846157   5.690724  38.137984  -0.131572  -0.689197 -11.792882  -2.367406  -1.025369 -12.623157  -2.028597  -2.898976 -18.215772  31.139608  -3.848074 -42.181727  19.640299  13.279572  -0.297547  57.430976   0.217230  -1.750978   3.284798 -16.509350 -16.154711 -28.934268   9.153533 -29.450785 -26.148001  -7.997095  -0.189244 -58.791762  -0.105385  -3.175395  -6.959344  13.771956 -65.156876   5.335406 -11.872222  96.943941  -0.003482  -0.000012 -43.056728  -9.520743  -3.185776  -1.667207   0.001601  -0.001174 -65.669881   4.994148   3.181575 100.887763  -0.000451  -0.000548 -24.574365   3.715308   1.208686 -32.279497  -0.012855  -0.003621
 -2.362227   0.670038   3.956980  13.146866   1.040620   5.954586  37.389367  -0.198393  -0.835380 -11.547218  -2.457287  -1.129660 -12.238426  -2.228161  -2.794538 -19.047372  31.839619  -5.167001 -44.033787  20.327245  12.882842  -0.282079  58.201714   0.204706  -1.757487   3.306950 -16.806175 -16.652730 -29.781592  10.989691 -31.380459 -27.254655  -7.285246  -0.135670 -58.515968  -0.077273  -3.281235  -7.392886  13.906540 -63.674194   5.433546 -12.272351  95.899284  -0.004641  -0.000094 -41.431327  -9.938208  -2.282443  -4.152251   0.011241   0.003989 -63.914380   5.088806   2.613173  99.110398   0.001737   0.001182 -21.691177   3.780807   0.576210 -42.450203  -0.043141  -0.017028
 -2.361526   0.682160   3.964056  12.893180   1.258147   6.283761  36.664504  -0.287745  -1.020585 -11.237482  -2.566782  -1.250022 -11.784873  -2.422275  -2.699560 -19.847159  32.467660  -6.478496 -45.781364  20.998602  12.479346  -0.264722  58.928832   0.190824  -1.758716   3.330416 -17.119474 -17.146777 -30.557956  12.805186 -33.204398 -28.299636  -6.580559  -0.093026 -58.221715  -0.055079  -3.420415  -7.607223  14.096705 -62.037737   5.526098 -12.715423  94.346292  -0.006647  -0.000672 -39.407007 -10.298040  -1.465896  -6.830598   0.016746   0.007652 -62.406549   5.148568   1.955883  97.335086   0.004346   0.003401 -19.110505   3.724379  -0.088750 -44.997585  -0.044458  -0.017234
 -2.360884   0.695977   3.971699  12.768144   1.462719   6.609632  35.816374  -0.358966  -1.228194 -10.976488  -2.661991  -1.377689 -11.318421  -2.604311  -2.610697 -20.583891  33.041679  -7.734541 -47.413354  21.637311  12.106862  -0.247475  59.613573   0.177373  -1.756097   3.365472 -17.405337 -17.596718 -31.260914  14.543975 -34.909072 -29.287625  -5.928742  -0.060728 -57.947865  -0.038190  -3.560461  -7.775924  14.273472 -60.372163   5.540362 -13.148451  92.458625  -0.008334  -0.001598 -37.102320 -10.653547  -0.681194  -5.638021   0.010393   0.003778 -60.848327   5.216287   1.303192  95.222998   0.006524   0.005823 -16.139746   3.663768  -0.658407 -47.975128  -0.044824  -0.017328
 -2.360461   0.710884   3.979897  12.791416   1.723474   6.949353  34.823509  -0.436001  -1.466210 -10.830189  -2.758999  -1.512611 -10.871736  -2.774936  -2.527130 -21.266840  33.566498  -8.929388 -48.938965  22.239876  11.761858  -0.230965  60.254148   0.164799  -1.755263   3.393514 -17.677174 -18.004319 -31.911727  16.204266 -36.504668 -30.227279  -5.332222  -0.036368 -57.694932  -0.025375  -3.694435  -7.941900  14.434446 -58.560884   5.470745 -13.593313  90.269722  -0.010373  -0.003907 -34.732397 -10.940743   0.028785 -10.140327   0.017192   0.007537 -59.406904   5.329379   0.663288  93.074740   0.006644   0.006888 -13.472633   3.610805  -1.219555 -47.380371  -0.034074  -0.012655
